<svg xmlns="http://www.w3.org/2000/svg"
 xmlns:xlink="http://www.w3.org/1999/xlink"
 width="202px" height="55px"  viewBox="0 0 202 55">
<path fill-rule="evenodd"  fill="#68b0c9"
 d="M9.351379,45.82617 C9.351379,45.82617 14.208252,40.785095 14.208252,40.785095 C14.208252,40.785095 15.6484375,42.17267 15.6484375,42.17267 C15.6484375,42.17267 10.791687,47.213684 10.791687,47.213684 C10.791687,47.213684 9.351379,45.82617 9.351379,45.82617 ZM17.329834,37.788208 C17.329834,37.788208 22.246582,32.80591 22.246582,32.80591 C22.246582,32.80591 23.670105,34.210693 23.670105,34.210693 C23.670105,34.210693 18.753357,39.1933 18.753357,39.1933 C18.753357,39.1933 17.329834,37.788208 17.329834,37.788208 ZM26.193298,29.521301 C26.193298,29.521301 31.503479,24.960205 31.503479,24.960205 C31.503479,24.960205 32.80658,26.477661 32.80658,26.477661 C32.80658,26.477661 27.496399,31.038452 27.496399,31.038452 C27.496399,31.038452 26.193298,29.521301 26.193298,29.521301 ZM36.99695,21.988953 C36.99695,21.988953 42.951294,18.308533 42.951294,18.308533 C42.951294,18.308533 44.00293,20.009766 44.00293,20.009766 C44.00293,20.009766 38.048584,23.690247 38.048584,23.690247 C38.048584,23.690247 36.99695,21.988953 36.99695,21.988953 ZM48.89514,14.5047 C48.89514,14.5047 55.29364,11.665955 55.29364,11.665955 C55.29364,11.665955 56.104736,13.493835 56.104736,13.493835 C56.104736,13.493835 49.7063,16.332886 49.7063,16.332886 C49.7063,16.332886 48.89514,14.5047 48.89514,14.5047 ZM61.863037,8.847656 C61.863037,8.847656 68.66815,7.2071533 68.66815,7.2071533 C68.66815,7.2071533 69.13678,9.151245 69.13678,9.151245 C69.13678,9.151245 62.331787,10.791748 62.331787,10.791748 C62.331787,10.791748 61.863037,8.847656 61.863037,8.847656 ZM75.892944,4.5099487 C75.892944,4.5099487 82.821045,3.5094604 82.821045,3.5094604 C82.821045,3.5094604 83.10693,5.4886475 83.10693,5.4886475 C83.10693,5.4886475 76.178894,6.489502 76.178894,6.489502 C76.178894,6.489502 75.892944,4.5099487 75.892944,4.5099487 ZM91.91467,2.3706665 C91.91467,2.3706665 98.87634,1.6393433 98.87634,1.6393433 C98.87634,1.6393433 99.085266,3.628296 99.085266,3.628296 C99.085266,3.628296 92.1236,4.359619 92.1236,4.359619 C92.1236,4.359619 91.91467,2.3706665 91.91467,2.3706665 ZM105.06677,1.7897339 C105.06677,1.7897339 112.053955,2.2128296 112.053955,2.2128296 C112.053955,2.2128296 111.933105,4.2092285 111.933105,4.2092285 C111.933105,4.2092285 104.94592,3.7861328 104.94592,3.7861328 C104.94592,3.7861328 105.06677,1.7897339 105.06677,1.7897339 ZM120.26703,3.3266602 C120.26703,3.3266602 127.12854,4.711609 127.12854,4.711609 C127.12854,4.711609 126.73297,6.6723022 126.73297,6.6723022 C126.73297,6.6723022 119.87128,5.2870483 119.87128,5.2870483 C119.87128,5.2870483 120.26703,3.3266602 120.26703,3.3266602 ZM133.27258,6.316101 C133.27258,6.316101 140.12952,7.723755 140.12952,7.723755 C140.12952,7.723755 139.72736,9.682861 139.72736,9.682861 C139.72736,9.682861 132.8703,8.2751465 132.8703,8.2751465 C132.8703,8.2751465 133.27258,6.316101 133.27258,6.316101 ZM145.44415,9.021362 C145.44415,9.021362 152.1394,11.064209 152.1394,11.064209 C152.1394,11.064209 151.55579,12.977173 151.55579,12.977173 C151.55579,12.977173 144.86047,10.934326 144.86047,10.934326 C144.86047,10.934326 145.44415,9.021362 145.44415,9.021362 ZM158.59631,14.804443 C158.59631,14.804443 165.125,17.329163 165.125,17.329163 C165.125,17.329163 164.40356,19.194702 164.40356,19.194702 C164.40356,19.194702 157.87488,16.669617 157.87488,16.669617 C157.87488,16.669617 158.59631,14.804443 158.59631,14.804443 ZM170.98853,21.364563 C170.98853,21.364563 177.02441,24.909546 177.02441,24.909546 C177.02441,24.909546 176.01147,26.634216 176.01147,26.634216 C176.01147,26.634216 169.97559,23.089172 169.97559,23.089172 C169.97559,23.089172 170.98853,21.364563 170.98853,21.364563 ZM181.45569,27.987305 C181.45569,27.987305 186.82678,32.476685 186.82678,32.476685 C186.82678,32.476685 185.54419,34.01129 185.54419,34.01129 C185.54419,34.01129 180.1731,29.522278 180.1731,29.522278 C180.1731,29.522278 181.45569,27.987305 181.45569,27.987305 ZM190.75012,35.807373 C190.75012,35.807373 200.67188,47.785217 200.67188,47.785217 C200.67188,47.785217 199.24976,49.191284 199.24976,49.191284 C199.24976,49.191284 189.328,37.213745 189.328,37.213745 C189.328,37.213745 190.75012,35.807373 190.75012,35.807373 ZM188.20654,45.202026 C188.20654,45.202026 199.08716,46.818542 199.08716,46.818542 C199.08716,46.818542 198.79333,48.796753 198.79333,48.796753 C198.79333,48.796753 187.91272,47.180237 187.91272,47.180237 C187.91272,47.180237 188.20654,45.202026 188.20654,45.202026 ZM198.24219,38.415283 C198.24219,38.415283 200.70691,49.135437 200.70691,49.135437 C200.70691,49.135437 198.75769,49.583557 198.75769,49.583557 C198.75769,49.583557 196.29297,38.863403 196.29297,38.863403 C196.29297,38.863403 198.24219,38.415283 198.24219,38.415283 ZM6.999939,43.999878 C9.761414,43.999878 12.0,46.238525 12.0,48.999695 C12.0,51.76117 9.761414,53.999817 6.999939,53.999817 C4.2384644,53.999817 1.9998779,51.76117 1.9998779,48.999695 C1.9998779,46.238525 4.2384644,43.999878 6.999939,43.999878 ZM6.999939,45.999878 C8.656799,45.999878 9.999878,47.342957 9.999878,48.999695 C9.999878,50.6568 8.656799,51.999817 6.999939,51.999817 C5.3430786,51.999817 4.0,50.6568 4.0,48.999695 C4.0,47.342957 5.3430786,45.999878 6.999939,45.999878 Z"/>
</svg>