<svg xmlns="http://www.w3.org/2000/svg"
 xmlns:xlink="http://www.w3.org/1999/xlink"
 width="201px" height="54px"  viewBox="0 0 201 54">
<path fill-rule="evenodd"  fill="#68b0c9"
 d="M192.638,44.884766 C192.638,44.884766 187.77441,39.87976 187.77441,39.87976 C187.77441,39.87976 186.33209,41.25757 186.33209,41.25757 C186.33209,41.25757 191.19574,46.262207 191.19574,46.262207 C191.19574,46.262207 192.638,44.884766 192.638,44.884766 ZM184.64844,36.904297 C184.64844,36.904297 179.72473,31.957764 179.72473,31.957764 C179.72473,31.957764 178.29913,33.352417 178.29913,33.352417 C178.29913,33.352417 183.22284,38.29895 183.22284,38.29895 C183.22284,38.29895 184.64844,36.904297 184.64844,36.904297 ZM175.7724,28.696533 C175.7724,28.696533 170.45471,24.168213 170.45471,24.168213 C170.45471,24.168213 169.14972,25.67456 169.14972,25.67456 C169.14972,25.67456 174.4674,30.20288 174.4674,30.20288 C174.4674,30.20288 175.7724,28.696533 175.7724,28.696533 ZM164.95337,21.218384 C164.95337,21.218384 158.99054,17.564209 158.99054,17.564209 C158.99054,17.564209 157.93762,19.253174 157.93762,19.253174 C157.93762,19.253174 163.90033,22.907349 163.90033,22.907349 C163.90033,22.907349 164.95337,21.218384 164.95337,21.218384 ZM153.03839,13.78772 C153.03839,13.78772 146.63086,10.969116 146.63086,10.969116 C146.63086,10.969116 145.81854,12.783936 145.81854,12.783936 C145.81854,12.783936 152.22607,15.602539 152.22607,15.602539 C152.22607,15.602539 153.03839,13.78772 153.03839,13.78772 ZM140.05206,8.170898 C140.05206,8.170898 133.23737,6.5421143 133.23737,6.5421143 C133.23737,6.5421143 132.768,8.47229 132.768,8.47229 C132.768,8.47229 139.58276,10.101074 139.58276,10.101074 C139.58276,10.101074 140.05206,8.170898 140.05206,8.170898 ZM126.00238,3.864746 C126.00238,3.864746 119.064514,2.8707275 119.064514,2.8707275 C119.064514,2.8707275 118.778076,4.8359375 118.778076,4.8359375 C118.778076,4.8359375 125.716064,5.82959 125.716064,5.82959 C125.716064,5.82959 126.00238,3.864746 126.00238,3.864746 ZM109.95801,1.7399902 C109.95801,1.7399902 102.98651,1.0142822 102.98651,1.0142822 C102.98651,1.0142822 102.77716,2.9888916 102.77716,2.9888916 C102.77716,2.9888916 109.74878,3.7149658 109.74878,3.7149658 C109.74878,3.7149658 109.95801,1.7399902 109.95801,1.7399902 ZM96.78723,1.1633301 C96.78723,1.1633301 89.7901,1.5838623 89.7901,1.5838623 C89.7901,1.5838623 89.91113,3.5656738 89.91113,3.5656738 C89.91113,3.5656738 96.908325,3.1455078 96.908325,3.1455078 C96.908325,3.1455078 96.78723,1.1633301 96.78723,1.1633301 ZM81.56555,2.6895752 C81.56555,2.6895752 74.694214,4.0646973 74.694214,4.0646973 C74.694214,4.0646973 75.090515,6.0111084 75.090515,6.0111084 C75.090515,6.0111084 81.96173,4.6359863 81.96173,4.6359863 C81.96173,4.6359863 81.56555,2.6895752 81.56555,2.6895752 ZM68.541626,5.6574707 C68.541626,5.6574707 61.674805,7.055176 61.674805,7.055176 C61.674805,7.055176 62.077515,8.999878 62.077515,8.999878 C62.077515,8.999878 68.944336,7.602661 68.944336,7.602661 C68.944336,7.602661 68.541626,5.6574707 68.541626,5.6574707 ZM56.352722,8.343628 C56.352722,8.343628 49.64801,10.371948 49.64801,10.371948 C49.64801,10.371948 50.23242,12.270874 50.23242,12.270874 C50.23242,12.270874 56.937195,10.242676 56.937195,10.242676 C56.937195,10.242676 56.352722,8.343628 56.352722,8.343628 ZM43.181946,14.084839 C43.181946,14.084839 36.64392,16.591675 36.64392,16.591675 C36.64392,16.591675 37.366394,18.44397 37.366394,18.44397 C37.366394,18.44397 43.90442,15.936768 43.90442,15.936768 C43.90442,15.936768 43.181946,14.084839 43.181946,14.084839 ZM30.772217,20.598145 C30.772217,20.598145 24.727783,24.118164 24.727783,24.118164 C24.727783,24.118164 25.742188,25.830444 25.742188,25.830444 C25.742188,25.830444 31.786621,22.310425 31.786621,22.310425 C31.786621,22.310425 30.772217,20.598145 30.772217,20.598145 ZM20.290222,27.173828 C20.290222,27.173828 14.911499,31.630737 14.911499,31.630737 C14.911499,31.630737 16.195984,33.15442 16.195984,33.15442 C16.195984,33.15442 21.574585,28.69751 21.574585,28.69751 C21.574585,28.69751 20.290222,27.173828 20.290222,27.173828 ZM10.982666,34.937744 C10.982666,34.937744 1.0467529,46.82959 1.0467529,46.82959 C1.0467529,46.82959 2.4709473,48.22583 2.4709473,48.22583 C2.4709473,48.22583 12.406738,36.334106 12.406738,36.334106 C12.406738,36.334106 10.982666,34.937744 10.982666,34.937744 ZM13.529724,44.264893 C13.529724,44.264893 2.633728,45.869995 2.633728,45.869995 C2.633728,45.869995 2.9280396,47.83423 2.9280396,47.83423 C2.9280396,47.83423 13.824097,46.229126 13.824097,46.229126 C13.824097,46.229126 13.529724,44.264893 13.529724,44.264893 ZM3.4799805,37.526855 C3.4799805,37.526855 1.0117188,48.170288 1.0117188,48.170288 C1.0117188,48.170288 2.963623,48.615234 2.963623,48.615234 C2.963623,48.615234 5.431885,37.97168 5.431885,37.97168 C5.431885,37.97168 3.4799805,37.526855 3.4799805,37.526855 ZM195.0,43.062378 C197.76129,43.062378 199.99988,45.286743 199.99988,48.031006 C199.99988,50.77527 197.76129,53.0 195.0,53.0 C192.23853,53.0 189.99994,50.77527 189.99994,48.031006 C189.99994,45.286743 192.23853,43.062378 195.0,43.062378 ZM195.0,45.062378 C196.65686,45.062378 197.99994,46.39148 197.99994,48.031006 C197.99994,49.670532 196.65686,50.999634 195.0,50.999634 C193.34308,50.999634 191.99988,49.670532 191.99988,48.031006 C191.99988,46.39148 193.34308,45.062378 195.0,45.062378 Z"/>
</svg>