<svg xmlns="http://www.w3.org/2000/svg"
 xmlns:xlink="http://www.w3.org/1999/xlink"
 width="152px" height="80px"  viewBox="0 0 152 80">
<path fill-rule="evenodd"  fill="#68b0c9"
 d="M10.486206,75.651855 C9.407471,77.89087 6.7178955,78.8313 4.478943,77.75244 C2.2399292,76.67407 1.2993164,73.984375 2.3780518,71.74536 C3.456787,69.50635 6.14624,68.56592 8.385254,69.644775 C10.624207,70.723145 11.564819,73.41284 10.486206,75.651855 ZM8.684326,74.78369 C8.085083,76.02759 6.5908203,76.55005 5.346985,75.95093 C4.1031494,75.35132 3.5805664,73.85742 4.1799316,72.61328 C4.779114,71.36963 6.2732544,70.84717 7.517212,71.44629 C8.761108,72.045654 9.28363,73.539795 8.684326,74.78369 ZM149.62183,17.254395 C148.54309,19.493408 145.85352,20.433838 143.61462,19.35498 C141.37573,18.276611 140.43506,15.586914 141.51367,13.3479 C142.5924,11.108887 145.28198,10.168457 147.521,11.247314 C149.76001,12.325684 150.70056,15.015381 149.62183,17.254395 ZM147.81995,16.38623 C147.2207,17.630127 145.72656,18.152588 144.48267,17.553467 C143.23877,16.953857 142.71631,15.459961 143.31555,14.21582 C143.9148,12.972168 145.40906,12.449707 146.65295,13.048828 C147.89673,13.648193 148.41931,15.142334 147.81995,16.38623 ZM143.0658,12.43042 C143.0658,12.43042 141.76367,15.133301 141.76367,15.133301 C141.76367,15.133301 133.65552,11.227051 133.65552,11.227051 C133.65552,11.227051 134.95764,8.524414 134.95764,8.524414 C134.95764,8.524414 143.0658,12.43042 143.0658,12.43042 ZM130.94006,6.6711426 C130.94006,6.6711426 130.24475,9.5896 130.24475,9.5896 C130.24475,9.5896 121.48987,7.503418 121.48987,7.503418 C121.48987,7.503418 122.18518,4.585205 122.18518,4.585205 C122.18518,4.585205 130.94006,6.6711426 130.94006,6.6711426 ZM118.82715,4.165283 C118.82715,4.165283 118.13196,7.083496 118.13196,7.083496 C118.13196,7.083496 109.37695,4.9975586 109.37695,4.9975586 C109.37695,4.9975586 110.072266,2.0793457 110.072266,2.0793457 C110.072266,2.0793457 118.82715,4.165283 118.82715,4.165283 ZM106.07776,1.5461426 C106.07776,1.5461426 106.03162,4.5456543 106.03162,4.5456543 C106.03162,4.5456543 97.032715,4.4072266 97.032715,4.4072266 C97.032715,4.4072266 97.07886,1.4077148 97.07886,1.4077148 C97.07886,1.4077148 106.07776,1.5461426 106.07776,1.5461426 ZM92.890015,2.4694824 C92.890015,2.4694824 93.256714,5.4472656 93.256714,5.4472656 C93.256714,5.4472656 84.3241,6.547119 84.3241,6.547119 C84.3241,6.547119 83.95752,3.5698242 83.95752,3.5698242 C83.95752,3.5698242 92.890015,2.4694824 92.890015,2.4694824 ZM78.364746,4.022705 C78.364746,4.022705 79.04724,6.9438477 79.04724,6.9438477 C79.04724,6.9438477 70.28345,8.991699 70.28345,8.991699 C70.28345,8.991699 69.60071,6.0705566 69.60071,6.0705566 C69.60071,6.0705566 78.364746,4.022705 78.364746,4.022705 ZM64.67688,8.210449 C64.67688,8.210449 65.7157,11.024902 65.7157,11.024902 C65.7157,11.024902 57.272583,14.141113 57.272583,14.141113 C57.272583,14.141113 56.233765,11.326904 56.233765,11.326904 C56.233765,11.326904 64.67688,8.210449 64.67688,8.210449 ZM51.88745,13.855225 C51.88745,13.855225 53.563477,16.343506 53.563477,16.343506 C53.563477,16.343506 46.098877,21.371582 46.098877,21.371582 C46.098877,21.371582 44.422974,18.883057 44.422974,18.883057 C44.422974,18.883057 51.88745,13.855225 51.88745,13.855225 ZM40.602295,21.629639 C40.602295,21.629639 42.671875,23.801514 42.671875,23.801514 C42.671875,23.801514 36.15631,30.010254 36.15631,30.010254 C36.15631,30.010254 34.086792,27.838135 34.086792,27.838135 C34.086792,27.838135 40.602295,21.629639 40.602295,21.629639 ZM27.506653,33.122314 C27.506653,33.122314 29.91571,34.9104 29.91571,34.9104 C29.91571,34.9104 24.552246,42.13745 24.552246,42.13745 C24.552246,42.13745 22.143127,40.34961 22.143127,40.34961 C22.143127,40.34961 27.506653,33.122314 27.506653,33.122314 ZM18.789307,45.65454 C18.789307,45.65454 21.347168,47.221924 21.347168,47.221924 C21.347168,47.221924 16.644836,54.895996 16.644836,54.895996 C16.644836,54.895996 14.086975,53.328613 14.086975,53.328613 C14.086975,53.328613 18.789307,45.65454 18.789307,45.65454 ZM11.427002,58.9209 C11.427002,58.9209 14.4122925,60.61084 14.4122925,60.61084 C14.4122925,60.61084 8.783081,70.92505 8.783081,70.92505 C8.783081,70.92505 5.7977905,69.235596 5.7977905,69.235596 C5.7977905,69.235596 11.427002,58.9209 11.427002,58.9209 Z"/>
</svg>