<svg xmlns="http://www.w3.org/2000/svg"
 xmlns:xlink="http://www.w3.org/1999/xlink"
 width="147px" height="56px"  viewBox="0 0 147 56">
<path fill-rule="evenodd"  fill="#68b0c9"
 d="M137.9461,52.824707 C139.32281,54.625977 141.89795,54.963135 143.69775,53.57788 C145.49768,52.19214 145.8407,49.609375 144.46399,47.808105 C143.08722,46.006836 140.51208,45.669678 138.71216,47.05542 C136.91235,48.440674 136.56934,51.02368 137.9461,52.824707 ZM139.39447,51.70996 C140.15936,52.710693 141.59003,52.897705 142.58984,52.128174 C143.58984,51.358643 143.7804,49.923584 143.0155,48.92285 C142.25067,47.922363 140.82007,47.734863 139.82007,48.50464 C138.82019,49.27417 138.62964,50.709473 139.39447,51.70996 ZM2.9283447,26.673584 C4.3050537,28.474365 6.880249,28.811523 8.680176,27.42627 C10.47998,26.041016 10.822937,23.457764 9.446228,21.656738 C8.069519,19.855713 5.4943237,19.518555 3.694519,20.903809 C1.8945923,22.289062 1.5516357,24.872314 2.9283447,26.673584 ZM4.376831,25.558838 C5.1416626,26.559326 6.5722656,26.746582 7.5722656,25.97705 C8.572144,25.20752 8.762695,23.772217 7.997864,22.771729 C7.23291,21.770752 5.802307,21.58374 4.802429,22.353516 C3.8024292,23.123047 3.6119385,24.557861 4.376831,25.558838 ZM7.8911133,21.126953 C7.8911133,21.126953 9.5529785,23.30127 9.5529785,23.30127 C9.5529785,23.30127 16.070862,18.284668 16.070862,18.284668 C16.070862,18.284668 14.408936,16.110107 14.408936,16.110107 C14.408936,16.110107 7.8911133,21.126953 7.8911133,21.126953 ZM17.653809,13.698242 C17.653809,13.698242 18.81366,16.178955 18.81366,16.178955 C18.81366,16.178955 26.245361,12.669678 26.245361,12.669678 C26.245361,12.669678 25.08551,10.188721 25.08551,10.188721 C25.08551,10.188721 17.653809,13.698242 17.653809,13.698242 ZM28.006104,9.183105 C28.006104,9.183105 29.166016,11.6640625 29.166016,11.6640625 C29.166016,11.6640625 36.597656,8.155029 36.597656,8.155029 C36.597656,8.155029 35.437805,5.673828 35.437805,5.673828 C35.437805,5.673828 28.006104,9.183105 28.006104,9.183105 ZM38.905945,4.4472656 C38.905945,4.4472656 39.50116,7.1228027 39.50116,7.1228027 C39.50116,7.1228027 47.510498,5.310791 47.510498,5.310791 C47.510498,5.310791 46.915222,2.6350098 46.915222,2.6350098 C46.915222,2.6350098 38.905945,4.4472656 38.905945,4.4472656 ZM50.85138,2.7993164 C50.85138,2.7993164 51.074097,5.5324707 51.074097,5.5324707 C51.074097,5.5324707 59.25287,4.8413086 59.25287,4.8413086 C59.25287,4.8413086 59.030273,2.1079102 59.030273,2.1079102 C59.030273,2.1079102 50.85138,2.7993164 50.85138,2.7993164 ZM64.10742,1.4641113 C64.10742,1.4641113 64.03772,4.2060547 64.03772,4.2060547 C64.03772,4.2060547 72.24109,4.394043 72.24109,4.394043 C72.24109,4.394043 72.31079,1.6520996 72.31079,1.6520996 C72.31079,1.6520996 64.10742,1.4641113 64.10742,1.4641113 ZM77.10254,2.6430664 C77.10254,2.6430664 76.694885,5.356201 76.694885,5.356201 C76.694885,5.356201 84.809204,6.561035 84.809204,6.561035 C84.809204,6.561035 85.21686,3.8476562 85.21686,3.8476562 C85.21686,3.8476562 77.10254,2.6430664 77.10254,2.6430664 ZM89.5647,5.294922 C89.5647,5.294922 88.52789,7.8359375 88.52789,7.8359375 C88.52789,7.8359375 96.12146,10.934326 96.12146,10.934326 C96.12146,10.934326 97.158325,8.393311 97.158325,8.393311 C97.158325,8.393311 89.5647,5.294922 89.5647,5.294922 ZM101.076904,10.134277 C101.076904,10.134277 99.63025,12.46582 99.63025,12.46582 C99.63025,12.46582 106.594666,16.799316 106.594666,16.799316 C106.594666,16.799316 108.04132,14.467529 108.04132,14.467529 C108.04132,14.467529 101.076904,10.134277 101.076904,10.134277 ZM114.89276,17.961426 C114.89276,17.961426 113.07202,20.013184 113.07202,20.013184 C113.07202,20.013184 119.195984,25.474121 119.195984,25.474121 C119.195984,25.474121 121.01672,23.422363 121.01672,23.422363 C121.01672,23.422363 114.89276,17.961426 114.89276,17.961426 ZM124.99115,27.540283 C124.99115,27.540283 122.996765,29.422607 122.996765,29.422607 C122.996765,29.422607 128.61298,35.40747 128.61298,35.40747 C128.61298,35.40747 130.60736,33.52466 130.60736,33.52466 C130.60736,33.52466 124.99115,27.540283 124.99115,27.540283 ZM134.01538,38.030273 C134.01538,38.030273 131.66205,40.102295 131.66205,40.102295 C131.66205,40.102295 138.59363,48.275635 138.59363,48.275635 C138.59363,48.275635 140.94696,46.203613 140.94696,46.203613 C140.94696,46.203613 134.01538,38.030273 134.01538,38.030273 Z"/>
</svg>