<svg xmlns="http://www.w3.org/2000/svg"
 xmlns:xlink="http://www.w3.org/1999/xlink"
 width="124px" height="111px"  viewBox="0 0 124 111">
<path fill-rule="evenodd"  fill="#68b0c9"
 d="M118.49994,100.999756 C120.98523,100.999756 122.99994,103.014404 122.99994,105.499756 C122.99994,107.98486 120.98523,110.0 118.49994,110.0 C116.01471,110.0 114.0,107.98486 114.0,105.499756 C114.0,103.014404 116.01471,100.999756 118.49994,100.999756 ZM118.49994,102.999756 C119.880615,102.999756 121.0,104.11914 121.0,105.499756 C121.0,106.880615 119.880615,108.0 118.49994,108.0 C117.1192,108.0 115.99994,106.880615 115.99994,105.499756 C115.99994,104.11914 117.1192,102.999756 118.49994,102.999756 ZM5.499939,0.99975586 C7.9852295,0.99975586 10.0,3.0146484 10.0,5.499756 C10.0,7.9853516 7.9852295,9.999756 5.499939,9.999756 C3.0145874,9.999756 1.0,7.9853516 1.0,5.499756 C1.0,3.0146484 3.0145874,0.99975586 5.499939,0.99975586 ZM5.499939,2.9997559 C6.8806763,2.9997559 7.999878,4.1191406 7.999878,5.499756 C7.999878,6.880615 6.8806763,7.999756 5.499939,7.999756 C4.1192017,7.999756 2.999939,6.880615 2.999939,5.499756 C2.999939,4.1191406 4.1192017,2.9997559 5.499939,2.9997559 ZM3.999939,8.999756 C3.999939,8.999756 6.999878,8.999756 6.999878,8.999756 C6.999878,8.999756 6.999878,17.999756 6.999878,17.999756 C6.999878,17.999756 3.999939,17.999756 3.999939,17.999756 C3.999939,17.999756 3.999939,8.999756 3.999939,8.999756 ZM4.0740967,22.423584 C4.0740967,22.423584 7.005066,21.783447 7.005066,21.783447 C7.005066,21.783447 8.92572,30.576172 8.92572,30.576172 C8.92572,30.576172 5.994873,31.216064 5.994873,31.216064 C5.994873,31.216064 4.0740967,22.423584 4.0740967,22.423584 ZM7.0741577,34.423584 C7.0741577,34.423584 10.005005,33.783447 10.005005,33.783447 C10.005005,33.783447 11.925781,42.57617 11.925781,42.57617 C11.925781,42.57617 8.994812,43.21631 8.994812,43.21631 C8.994812,43.21631 7.0741577,34.423584 7.0741577,34.423584 ZM10.248047,47.04663 C10.248047,47.04663 12.97052,45.78589 12.97052,45.78589 C12.97052,45.78589 16.75177,53.953125 16.75177,53.953125 C16.75177,53.953125 14.029419,55.213867 14.029419,55.213867 C14.029419,55.213867 10.248047,47.04663 10.248047,47.04663 ZM16.80426,58.526367 C16.80426,58.526367 19.327454,56.903564 19.327454,56.903564 C19.327454,56.903564 24.195679,64.47339 24.195679,64.47339 C24.195679,64.47339 21.672363,66.09595 21.672363,66.09595 C21.672363,66.09595 16.80426,58.526367 16.80426,58.526367 ZM24.507874,70.93799 C24.507874,70.93799 26.843384,69.055176 26.843384,69.055176 C26.843384,69.055176 32.491943,76.06177 32.491943,76.06177 C32.491943,76.06177 30.156433,77.94458 30.156433,77.94458 C30.156433,77.94458 24.507874,70.93799 24.507874,70.93799 ZM34.221497,81.45166 C34.221497,81.45166 36.30603,79.29419 36.30603,79.29419 C36.30603,79.29419 42.77838,85.548096 42.77838,85.548096 C42.77838,85.548096 40.693848,87.70557 40.693848,87.70557 C40.693848,87.70557 34.221497,81.45166 34.221497,81.45166 ZM44.858093,90.52344 C44.858093,90.52344 46.37213,87.93384 46.37213,87.93384 C46.37213,87.93384 54.141785,92.476074 54.141785,92.476074 C54.141785,92.476074 52.627747,95.06616 52.627747,95.06616 C52.627747,95.06616 44.858093,90.52344 44.858093,90.52344 ZM56.76007,97.315674 C56.76007,97.315674 57.81842,94.50879 57.81842,94.50879 C57.81842,94.50879 66.23981,97.68359 66.23981,97.68359 C66.23981,97.68359 65.18146,100.49097 65.18146,100.49097 C65.18146,100.49097 56.76007,97.315674 56.76007,97.315674 ZM72.79791,104.12573 C72.79791,104.12573 73.362915,101.178955 73.362915,101.178955 C73.362915,101.178955 82.201904,102.87402 82.201904,102.87402 C82.201904,102.87402 81.6369,105.82031 81.6369,105.82031 C81.6369,105.82031 72.79791,104.12573 72.79791,104.12573 ZM87.87189,106.53931 C87.87189,106.53931 88.17377,103.55469 88.17377,103.55469 C88.17377,103.55469 97.12805,104.46045 97.12805,104.46045 C97.12805,104.46045 96.82617,107.44507 96.82617,107.44507 C96.82617,107.44507 87.87189,106.53931 87.87189,106.53931 ZM103.01892,107.41406 C103.01892,107.41406 103.24548,103.99121 103.24548,103.99121 C103.24548,103.99121 114.980835,104.58569 114.980835,104.58569 C114.980835,104.58569 114.754395,108.0083 114.754395,108.0083 C114.754395,108.0083 103.01892,107.41406 103.01892,107.41406 Z"/>
</svg>