<svg xmlns="http://www.w3.org/2000/svg"
 xmlns:xlink="http://www.w3.org/1999/xlink"
 width="147px" height="57px"  viewBox="0 0 147 57">
<path fill-rule="evenodd"  fill="#68b0c9"
 d="M137.64478,3.6132812 C139.01941,1.8110352 141.5907,1.473877 143.38782,2.8601074 C145.18481,4.246338 145.52734,6.8308105 144.15271,8.633057 C142.77808,10.435303 140.20691,10.772705 138.40967,9.386475 C136.61267,8.0 136.27014,5.4155273 137.64478,3.6132812 ZM139.09094,4.72876 C139.85461,3.7277832 141.28308,3.5402832 142.28162,4.3103027 C143.28003,5.0805664 143.47021,6.5163574 142.70654,7.517578 C141.94287,8.518799 140.5144,8.706055 139.51599,7.936035 C138.51758,7.1657715 138.32727,5.7299805 139.09094,4.72876 ZM2.833374,29.78003 C4.207947,27.978027 6.779175,27.640625 8.576294,29.026855 C10.373474,30.413086 10.715881,32.99756 9.341309,34.799805 C7.966675,36.60205 5.3953857,36.939453 3.5983276,35.553223 C1.8012695,34.166748 1.4587402,31.582275 2.833374,29.78003 ZM4.279602,30.895508 C5.043274,29.894531 6.4716797,29.707031 7.470093,30.47705 C8.468445,31.247314 8.658813,32.683105 7.8950195,33.684326 C7.1313477,34.685547 5.702881,34.872803 4.704529,34.102783 C3.7061157,33.33252 3.5159302,31.896729 4.279602,30.895508 ZM7.788452,35.32959 C7.788452,35.32959 9.447876,33.154297 9.447876,33.154297 C9.447876,33.154297 15.9557495,38.174072 15.9557495,38.174072 C15.9557495,38.174072 14.296387,40.34961 14.296387,40.34961 C14.296387,40.34961 7.788452,35.32959 7.788452,35.32959 ZM17.536316,42.76294 C17.536316,42.76294 18.694458,40.28076 18.694458,40.28076 C18.694458,40.28076 26.114685,43.791992 26.114685,43.791992 C26.114685,43.791992 24.956543,46.27417 24.956543,46.27417 C24.956543,46.27417 17.536316,42.76294 17.536316,42.76294 ZM27.872742,47.280518 C27.872742,47.280518 29.031006,44.798096 29.031006,44.798096 C29.031006,44.798096 36.451233,48.30957 36.451233,48.30957 C36.451233,48.30957 35.29309,50.791748 35.29309,50.791748 C35.29309,50.791748 27.872742,47.280518 27.872742,47.280518 ZM38.75592,52.019287 C38.75592,52.019287 39.35022,49.342285 39.35022,49.342285 C39.35022,49.342285 47.347412,51.155518 47.347412,51.155518 C47.347412,51.155518 46.75305,53.83252 46.75305,53.83252 C46.75305,53.83252 38.75592,52.019287 38.75592,52.019287 ZM50.683228,53.66797 C50.683228,53.66797 50.905396,50.93335 50.905396,50.93335 C50.905396,50.93335 59.071777,51.625 59.071777,51.625 C59.071777,51.625 58.849487,54.359863 58.849487,54.359863 C58.849487,54.359863 50.683228,53.66797 50.683228,53.66797 ZM63.918945,55.00464 C63.918945,55.00464 63.849365,52.260498 63.849365,52.260498 C63.849365,52.260498 72.04016,52.07251 72.04016,52.07251 C72.04016,52.07251 72.10986,54.816406 72.10986,54.816406 C72.10986,54.816406 63.918945,55.00464 63.918945,55.00464 ZM76.894165,53.824707 C76.894165,53.824707 76.48718,51.109863 76.48718,51.109863 C76.48718,51.109863 84.58923,49.904297 84.58923,49.904297 C84.58923,49.904297 84.996216,52.619385 84.996216,52.619385 C84.996216,52.619385 76.894165,53.824707 76.894165,53.824707 ZM89.3374,51.171387 C89.3374,51.171387 88.302124,48.628906 88.302124,48.628906 C88.302124,48.628906 95.884155,45.52832 95.884155,45.52832 C95.884155,45.52832 96.91943,48.071045 96.91943,48.071045 C96.91943,48.071045 89.3374,51.171387 89.3374,51.171387 ZM100.83191,46.3291 C100.83191,46.3291 99.38757,43.996094 99.38757,43.996094 C99.38757,43.996094 106.34131,39.660156 106.34131,39.660156 C106.34131,39.660156 107.78577,41.99341 107.78577,41.99341 C107.78577,41.99341 100.83191,46.3291 100.83191,46.3291 ZM114.62671,38.497314 C114.62671,38.497314 112.808716,36.44409 112.808716,36.44409 C112.808716,36.44409 118.92334,30.980225 118.92334,30.980225 C118.92334,30.980225 120.74133,33.033203 120.74133,33.033203 C120.74133,33.033203 114.62671,38.497314 114.62671,38.497314 ZM124.70972,28.912842 C124.70972,28.912842 122.71838,27.029297 122.71838,27.029297 C122.71838,27.029297 128.32593,21.041016 128.32593,21.041016 C128.32593,21.041016 130.31738,22.924805 130.31738,22.924805 C130.31738,22.924805 124.70972,28.912842 124.70972,28.912842 ZM133.72021,18.416748 C133.72021,18.416748 131.37048,16.343506 131.37048,16.343506 C131.37048,16.343506 138.29126,8.165039 138.29126,8.165039 C138.29126,8.165039 140.64111,10.238525 140.64111,10.238525 C140.64111,10.238525 133.72021,18.416748 133.72021,18.416748 Z"/>
</svg>