<svg xmlns="http://www.w3.org/2000/svg"
 xmlns:xlink="http://www.w3.org/1999/xlink"
 width="158px" height="67px"  viewBox="0 0 158 67">
<path fill-rule="evenodd"  fill="#68b0c9"
 d="M8.569946,11.000488 C8.569946,11.000488 12.152283,16.989746 12.152283,16.989746 C12.152283,16.989746 13.872803,15.980469 13.872803,15.980469 C13.872803,15.980469 10.290466,9.991211 10.290466,9.991211 C10.290466,9.991211 8.569946,11.000488 8.569946,11.000488 ZM14.510254,20.604248 C14.510254,20.604248 18.164307,26.551025 18.164307,26.551025 C18.164307,26.551025 19.872498,25.521729 19.872498,25.521729 C19.872498,25.521729 16.218384,19.574707 16.218384,19.574707 C16.218384,19.574707 14.510254,20.604248 14.510254,20.604248 ZM21.260742,30.633057 C21.260742,30.633057 25.394592,36.26294 25.394592,36.26294 C25.394592,36.26294 27.010986,35.097168 27.010986,35.097168 C27.010986,35.097168 22.877136,29.467285 22.877136,29.467285 C22.877136,29.467285 21.260742,30.633057 21.260742,30.633057 ZM30.069946,40.399414 C30.069946,40.399414 35.03247,45.32666 35.03247,45.32666 C35.03247,45.32666 36.4458,43.92505 36.4458,43.92505 C36.4458,43.92505 31.483215,38.997803 31.483215,38.997803 C31.483215,38.997803 30.069946,40.399414 30.069946,40.399414 ZM39.956726,50.371094 C39.956726,50.371094 45.54431,54.587646 45.54431,54.587646 C45.54431,54.587646 46.75226,53.007812 46.75226,53.007812 C46.75226,53.007812 41.16455,48.79126 41.16455,48.79126 C41.16455,48.79126 39.956726,50.371094 39.956726,50.371094 ZM51.37152,57.826416 C51.37152,57.826416 57.62903,60.97827 57.62903,60.97827 C57.62903,60.97827 58.529724,59.20752 58.529724,59.20752 C58.529724,59.20752 52.272217,56.055664 52.272217,56.055664 C52.272217,56.055664 51.37152,57.826416 51.37152,57.826416 ZM81.095825,65.00513 C81.095825,65.00513 88.09985,65.224365 88.09985,65.224365 C88.09985,65.224365 88.15527,63.238525 88.15527,63.238525 C88.15527,63.238525 81.151245,63.019775 81.151245,63.019775 C81.151245,63.019775 81.095825,65.00513 81.095825,65.00513 ZM93.575745,65.194336 C93.575745,65.194336 100.56714,64.76221 100.56714,64.76221 C100.56714,64.76221 100.43512,62.779785 100.43512,62.779785 C100.43512,62.779785 93.443665,63.21118 93.443665,63.21118 C93.443665,63.21118 93.575745,65.194336 93.575745,65.194336 ZM107.71387,62.635498 C107.71387,62.635498 114.653076,61.699463 114.653076,61.699463 C114.653076,61.699463 114.37598,59.7312 114.37598,59.7312 C114.37598,59.7312 107.436646,60.666992 107.436646,60.666992 C107.436646,60.666992 107.71387,62.635498 107.71387,62.635498 ZM121.28882,59.15088 C121.28882,59.15088 127.98071,57.11548 127.98071,57.11548 C127.98071,57.11548 127.38721,55.21582 127.38721,55.21582 C127.38721,55.21582 120.695435,57.25122 120.695435,57.25122 C120.695435,57.25122 121.28882,59.15088 121.28882,59.15088 ZM133.0022,55.162354 C133.0022,55.162354 139.2616,52.061768 139.2616,52.061768 C139.2616,52.061768 138.36206,50.28369 138.36206,50.28369 C138.36206,50.28369 132.10266,53.384033 132.10266,53.384033 C132.10266,53.384033 133.0022,55.162354 133.0022,55.162354 ZM143.8457,49.746582 C143.8457,49.746582 156.25012,40.45874 156.25012,40.45874 C156.25012,40.45874 155.18518,38.77246 155.18518,38.77246 C155.18518,38.77246 142.78088,48.06079 142.78088,48.06079 C142.78088,48.06079 143.8457,49.746582 143.8457,49.746582 ZM142.5144,40.01538 C142.5144,40.01538 154.48499,41.028076 154.48499,41.028076 C154.48499,41.028076 154.65027,39.048096 154.65027,39.048096 C154.65027,39.048096 142.67944,38.03662 142.67944,38.03662 C142.67944,38.03662 142.5144,40.01538 142.5144,40.01538 ZM152.5354,52.01367 C152.5354,52.01367 156.59253,39.161865 156.59253,39.161865 C156.59253,39.161865 154.79529,38.279785 154.79529,38.279785 C154.79529,38.279785 150.73816,51.13208 150.73816,51.13208 C150.73816,51.13208 152.5354,52.01367 152.5354,52.01367 ZM8.14447,2.5615234 C10.835754,3.197754 12.506165,5.8759766 11.875671,8.544434 C11.245239,11.2126465 8.552307,12.859619 5.861267,12.224121 C3.1699219,11.587891 1.4994507,8.909668 2.130005,6.240967 C2.760498,3.572998 5.453369,1.9257812 8.14447,2.5615234 ZM7.687866,4.4938965 C9.30249,4.8754883 10.304871,6.482666 9.926636,8.083496 C9.548218,9.684814 7.932495,10.672852 6.317871,10.29126 C4.703125,9.909668 3.7008057,8.302734 4.0790405,6.7021484 C4.4573975,5.10083 6.073059,4.112793 7.687866,4.4938965 ZM65.2016,62.914062 C65.2016,62.914062 73.13489,64.19946 73.13489,64.19946 C73.13489,64.19946 73.19037,62.21338 73.19037,62.21338 C73.19037,62.21338 65.25702,60.928467 65.25702,60.928467 C65.25702,60.928467 65.2016,62.914062 65.2016,62.914062 Z"/>
</svg>