<svg xmlns="http://www.w3.org/2000/svg"
 xmlns:xlink="http://www.w3.org/1999/xlink"
 width="26px" height="23px"  viewBox="0 0 26 23">
<path fill-rule="evenodd"  fill="#68b0c9"
 d="M3.999878,12.999756 C3.999878,12.999756 2.024414,13.538818 2.0,9.999512 C1.9749756,6.4018555 5.999878,6.999756 5.999878,6.999756 C5.999878,6.999756 7.999878,6.999756 7.999878,6.999756 C7.999878,6.999756 5.1011963,6.602783 4.999878,4.999756 C4.867798,2.9086914 7.187622,2.08667 7.999878,2.0 C11.083252,1.6699219 11.937378,4.999756 11.937378,4.999756 C11.937378,4.999756 13.972534,5.005615 13.972534,5.005615 C13.972534,5.005615 16.343872,2.0187988 17.999878,2.0 C19.84851,1.9785156 20.968506,2.80542 21.06189,5.296875 C21.112915,6.659424 18.999878,6.999756 18.999878,6.999756 C18.999878,6.999756 21.999878,6.999756 21.999878,6.999756 C21.999878,6.999756 23.979004,7.118164 24.0,9.999512 C24.016846,12.3359375 21.999878,12.999756 21.999878,12.999756 C21.999878,12.999756 21.999878,21.999512 21.999878,21.999512 C21.999878,21.999512 3.999878,21.999512 3.999878,21.999512 C3.999878,21.999512 3.999878,12.999756 3.999878,12.999756 ZM5.999878,13.999756 C5.999878,13.999756 10.999878,13.999756 10.999878,13.999756 C10.999878,13.999756 10.999878,19.999756 10.999878,19.999756 C10.999878,19.999756 5.999878,19.999756 5.999878,19.999756 C5.999878,19.999756 5.999878,13.999756 5.999878,13.999756 ZM14.999878,13.999756 C14.999878,13.999756 14.999878,19.999756 14.999878,19.999756 C14.999878,19.999756 19.999878,19.999756 19.999878,19.999756 C19.999878,19.999756 19.999878,13.999756 19.999878,13.999756 C19.999878,13.999756 14.999878,13.999756 14.999878,13.999756 ZM10.999878,8.999756 C10.999878,8.999756 10.999878,11.999512 10.999878,11.999512 C10.999878,11.999512 4.999878,11.999512 4.999878,11.999512 C4.999878,11.999512 4.0567627,12.115967 3.999878,10.999756 C3.9049072,9.135986 4.999878,8.999756 4.999878,8.999756 C4.999878,8.999756 10.999878,8.999756 10.999878,8.999756 ZM14.999878,8.999756 C14.999878,8.999756 14.999878,11.999512 14.999878,11.999512 C14.999878,11.999512 20.999878,11.999512 20.999878,11.999512 C20.999878,11.999512 21.925537,12.104736 21.999878,10.999756 C22.139404,8.927246 20.999878,8.999756 20.999878,8.999756 C20.999878,8.999756 14.999878,8.999756 14.999878,8.999756 ZM10.999878,5.999756 C10.999878,5.999756 6.937378,6.343506 6.999878,4.999756 C7.062378,3.6560059 9.312378,3.1247559 9.999878,4.0 C10.687378,4.874756 10.999878,5.999756 10.999878,5.999756 ZM14.999878,5.999756 C14.999878,5.999756 16.656128,3.9057617 17.999878,4.0 C19.34375,4.093506 20.218628,5.4375 18.999878,5.999756 C17.781128,6.5620117 14.999878,5.999756 14.999878,5.999756 Z"/>
</svg>