<svg xmlns="http://www.w3.org/2000/svg"
 xmlns:xlink="http://www.w3.org/1999/xlink"
 width="50px" height="45px"  viewBox="0 0 50 45">
<path fill-rule="evenodd"  fill="#68b0c9"
 d="M4.999939,42.999756 C4.999939,42.999756 44.999878,42.999756 44.999878,42.999756 C44.999878,42.999756 47.451904,42.35498 47.99994,40.999756 C48.55487,39.62744 47.205994,37.54492 47.205994,37.54492 C47.205994,37.54492 28.999878,5.0 28.999878,5.0 C28.999878,5.0 26.888245,1.9799805 25.0,1.9997559 C23.111572,2.0197754 20.999939,5.0 20.999939,5.0 C20.999939,5.0 2.999939,38.0 2.999939,38.0 C2.999939,38.0 1.4863892,39.78247 2.0,40.999756 C2.9364624,43.21997 4.999939,42.999756 4.999939,42.999756 ZM25.0,32.0 C26.65686,32.0 27.999939,33.343018 27.999939,34.999756 C27.999939,36.656494 26.65686,38.0 25.0,38.0 C23.343079,38.0 21.999878,36.656494 21.999878,34.999756 C21.999878,33.343018 23.343079,32.0 25.0,32.0 ZM25.0,29.999756 C26.086792,29.96045 26.950867,28.88916 26.999939,27.999756 C27.049011,27.110596 27.999939,15.0 27.999939,15.0 C27.999939,15.0 27.317993,12.063232 25.0,11.999756 C22.681885,11.936523 21.999878,15.0 21.999878,15.0 C21.999878,15.0 23.0,27.999756 23.0,27.999756 C23.0,27.999756 23.913147,30.039307 25.0,29.999756 Z"/>
</svg>