<svg xmlns="http://www.w3.org/2000/svg"
 xmlns:xlink="http://www.w3.org/1999/xlink"
 width="27px" height="35px"  viewBox="0 0 27 35">
<path fill-rule="evenodd"  fill="#68b0c9"
 d="M13.999878,1.9995117 C20.627441,1.9995117 26.0,7.3720703 26.0,14.0 C26.0,20.627441 13.999878,33.99951 13.999878,33.99951 C13.999878,33.99951 2.0,20.627441 2.0,14.0 C2.0,7.3720703 7.3725586,1.9995117 13.999878,1.9995117 ZM13.999878,3.9995117 C19.522827,3.9995117 24.0,8.700684 24.0,14.499512 C24.0,20.29834 13.999878,30.999512 13.999878,30.999512 C13.999878,30.999512 4.0,20.29834 4.0,14.499512 C4.0,8.700684 8.477051,3.9995117 13.999878,3.9995117 ZM13.999878,6.9995117 C17.865967,6.9995117 20.999878,10.133789 20.999878,14.0 C20.999878,17.865723 17.865967,20.999512 13.999878,20.999512 C10.134033,20.999512 6.999878,17.865723 6.999878,14.0 C6.999878,10.133789 10.134033,6.9995117 13.999878,6.9995117 ZM13.999878,8.999512 C16.761353,8.999512 19.0,11.238281 19.0,14.0 C19.0,16.76123 16.761353,18.999512 13.999878,18.999512 C11.238525,18.999512 9.0,16.76123 9.0,14.0 C9.0,11.238281 11.238525,8.999512 13.999878,8.999512 Z"/>
</svg>