<svg xmlns="http://www.w3.org/2000/svg"
 xmlns:xlink="http://www.w3.org/1999/xlink"
 width="83px" height="97px"  viewBox="0 0 83 97">
<path fill-rule="evenodd"  fill="#ecf2f7"
 d="M30.999939,1.9992676 C30.999939,1.9992676 51.99994,1.9992676 51.99994,1.9992676 C51.99994,1.9992676 55.04126,1.9804688 57.0,3.9992676 C59.90808,6.996826 61.809814,12.781982 59.0,15.999268 C56.735962,18.591553 51.0,17.999268 51.0,17.999268 C51.0,17.999268 51.0,20.999512 51.0,20.999512 C51.0,20.999512 57.739624,20.407227 62.999878,22.999512 C68.09302,25.509277 71.9494,33.06421 74.99994,51.999268 C76.63678,62.159424 73.0,70.99951 73.0,70.99951 C73.0,70.99951 79.6167,69.75049 81.0,75.99927 C81.85028,79.84082 80.49426,87.19458 76.99994,90.99927 C72.42627,95.97974 65.0,95.99951 65.0,95.99951 C65.0,95.99951 14.999939,95.99951 14.999939,95.99951 C14.999939,95.99951 9.749512,94.50464 6.999939,90.99927 C3.5670776,86.62329 1.7952881,79.8501 1.999939,76.99951 C2.5632324,69.15137 10.999878,70.99951 10.999878,70.99951 C10.999878,70.99951 7.8356934,61.053467 9.999939,50.99951 C14.480713,30.184082 16.044006,25.374756 21.999939,22.999512 C26.84674,21.066406 32.999878,20.999512 32.999878,20.999512 C32.999878,20.999512 32.999878,17.999268 32.999878,17.999268 C32.999878,17.999268 27.448364,19.013672 24.999939,14.999512 C23.333069,12.266846 24.939026,7.6865234 27.0,4.9995117 C28.800842,2.6513672 30.999939,1.9992676 30.999939,1.9992676 ZM31.999939,4.9995117 C31.999939,4.9995117 52.99994,4.9995117 52.99994,4.9995117 C52.99994,4.9995117 57.4281,7.470459 57.0,10.999512 C56.571777,14.52832 54.99994,14.999512 54.99994,14.999512 C54.99994,14.999512 29.999939,14.999512 29.999939,14.999512 C29.999939,14.999512 26.673584,14.117432 28.0,9.999756 C29.326355,5.8813477 31.999939,4.9995117 31.999939,4.9995117 ZM36.0,17.999268 C36.0,17.999268 47.999878,17.999268 47.999878,17.999268 C47.999878,17.999268 47.999878,20.999512 47.999878,20.999512 C47.999878,20.999512 36.0,20.999512 36.0,20.999512 C36.0,20.999512 36.0,17.999268 36.0,17.999268 ZM21.0,79.99927 C21.0,79.99927 21.0,92.99927 21.0,92.99927 C21.0,92.99927 16.999939,92.99927 16.999939,92.99927 C16.999939,92.99927 13.402832,93.38208 9.999939,88.999756 C6.597107,84.616455 4.8483887,78.59424 6.0,75.99927 C7.1516113,73.404785 10.901489,72.40527 13.0,74.999756 C15.098389,77.59375 17.999878,79.99927 17.999878,79.99927 C17.999878,79.99927 21.0,79.99927 21.0,79.99927 ZM63.999878,79.99927 C63.999878,79.99927 63.999878,92.99927 63.999878,92.99927 C63.999878,92.99927 67.99994,92.99927 67.99994,92.99927 C67.99994,92.99927 73.88953,91.12598 75.99994,85.99951 C78.11047,80.8728 79.39563,74.22266 74.99994,73.99951 C70.60425,73.77612 69.96753,76.76367 67.99994,77.99927 C66.03235,79.23511 63.999878,79.99927 63.999878,79.99927 ZM23.999939,92.99927 C23.999939,92.99927 60.99994,92.99927 60.99994,92.99927 C60.99994,92.99927 60.99994,79.99927 60.99994,79.99927 C60.99994,79.99927 60.1557,79.461914 59.0,78.99927 C57.668213,78.46655 55.999878,77.99927 55.999878,77.99927 C55.999878,77.99927 55.999878,84.99927 55.999878,84.99927 C55.999878,84.99927 55.260498,85.95825 53.99994,85.99951 C52.73938,86.04053 52.99994,84.99927 52.99994,84.99927 C52.99994,84.99927 52.99994,77.99927 52.99994,77.99927 C52.99994,77.99927 50.0,77.99927 50.0,77.99927 C50.0,77.99927 50.0,84.99927 50.0,84.99927 C50.0,84.99927 49.471252,85.99878 47.999878,85.99951 C46.684387,85.999756 45.99994,84.99927 45.99994,84.99927 C45.99994,84.99927 45.99994,77.99927 45.99994,77.99927 C45.99994,77.99927 44.0,77.99927 44.0,77.99927 C44.0,77.99927 44.0,84.99927 44.0,84.99927 C44.0,84.99927 43.390564,85.886475 42.0,85.99951 C40.609314,86.11255 39.99994,84.99927 39.99994,84.99927 C39.99994,84.99927 39.99994,77.99927 39.99994,77.99927 C39.99994,77.99927 37.99994,77.99927 37.99994,77.99927 C37.99994,77.99927 37.99994,84.99927 37.99994,84.99927 C37.99994,84.99927 37.34796,85.95825 36.0,85.99951 C34.651855,86.04053 33.999878,84.99927 33.999878,84.99927 C33.999878,84.99927 33.999878,77.99927 33.999878,77.99927 C33.999878,77.99927 31.999939,77.99927 31.999939,77.99927 C31.999939,77.99927 31.999939,84.99927 31.999939,84.99927 C31.999939,84.99927 31.166565,85.95801 29.999939,85.99951 C28.588074,86.049805 28.0,84.99927 28.0,84.99927 C28.0,84.99927 28.0,78.99927 28.0,78.99927 C27.999634,77.746826 23.999817,78.48462 23.999939,78.99927 C23.999939,78.99927 23.999939,92.99927 23.999939,92.99927 ZM63.999878,76.99951 C63.999878,76.99951 70.503235,74.0918 70.99988,66.99951 C71.496704,59.907227 72.755554,53.793945 69.99994,44.999268 C67.24426,36.205322 66.48877,26.202148 59.99994,24.999268 C53.511047,23.796387 29.950378,22.856201 24.999939,24.999268 C19.62384,27.32666 16.7677,34.61621 14.999939,40.99951 C11.492798,53.66333 13.141541,68.04126 14.0,69.99951 C16.282288,75.20508 20.0,76.99951 20.0,76.99951 C20.0,76.99951 35.776245,74.86401 43.0,74.999756 C50.223633,75.134766 63.999878,76.99951 63.999878,76.99951 ZM22.999939,71.99951 C22.999939,71.99951 23.349426,74.14087 24.999939,73.99951 C26.650513,73.85791 27.0,70.99951 27.0,70.99951 C27.0,70.99951 25.753296,36.906982 29.999939,34.999268 C34.246643,33.091553 53.43164,32.79712 54.99994,35.99951 C56.568237,39.201904 57.0,70.99951 57.0,70.99951 C57.0,70.99951 57.23346,73.170654 59.0,72.99951 C60.76648,72.82788 60.99994,70.99951 60.99994,70.99951 C60.99994,70.99951 59.726807,36.40503 58.0,33.99951 C56.27307,31.593994 49.400757,29.902832 42.0,29.999268 C34.59912,30.095947 28.87738,30.7229 27.0,32.999268 C23.38562,37.381836 23.030762,61.901855 22.999939,65.99927 C22.969177,70.09668 22.999939,71.99951 22.999939,71.99951 Z"/>
</svg>