<svg xmlns="http://www.w3.org/2000/svg"
 xmlns:xlink="http://www.w3.org/1999/xlink"
 width="85px" height="44px"  viewBox="0 0 85 44">
<path fill-rule="evenodd"  fill="#939393"
 d="M79.43225,35.59326 C77.49054,35.629883 75.946655,37.225586 75.983826,39.157715 C76.020996,41.088867 77.625244,42.625 79.566956,42.58789 C81.50867,42.55078 83.05249,40.95508 83.01532,39.023438 C82.97809,37.091797 81.37402,35.556152 79.43225,35.59326 ZM79.4707,37.59131 C78.63849,37.60742 77.97693,38.291016 77.99286,39.11914 C78.00873,39.946777 78.69629,40.60498 79.52838,40.589355 C80.360596,40.57373 81.02234,39.88965 81.00629,39.06201 C80.99036,38.233887 80.30286,37.575684 79.4707,37.59131 ZM5.4297485,2.015625 C3.488037,2.052246 1.9440918,3.6479492 1.9813232,5.580078 C2.0184937,7.5112305 3.6227417,9.047363 5.564453,9.010254 C7.5061646,8.973145 9.050049,7.3774414 9.012878,5.445801 C8.975586,3.5141602 7.37146,1.9785156 5.4297485,2.015625 ZM5.4682007,4.013672 C4.6359863,4.029785 3.9743652,4.713379 3.9902954,5.541504 C4.0062256,6.3691406 4.6937866,7.0273438 5.525879,7.0117188 C6.3580933,6.9956055 7.0197754,6.3120117 7.003784,5.4838867 C6.987854,4.65625 6.300415,3.9980469 5.4682007,4.013672 ZM78.020325,36.18994 C78.020325,36.18994 70.82068,33.456543 70.82068,33.456543 C70.82068,33.456543 70.10431,35.32422 70.10431,35.32422 C70.10431,35.32422 77.303894,38.057617 77.303894,38.057617 C77.303894,38.057617 78.020325,36.18994 78.020325,36.18994 ZM68.883545,31.365723 C68.883545,31.365723 61.683838,28.632324 61.683838,28.632324 C61.683838,28.632324 60.96747,30.5 60.96747,30.5 C60.96747,30.5 68.167175,33.2334 68.167175,33.2334 C68.167175,33.2334 68.883545,31.365723 68.883545,31.365723 ZM58.74225,26.561035 C58.74225,26.561035 51.542664,23.827637 51.542664,23.827637 C51.542664,23.827637 50.826294,25.695312 50.826294,25.695312 C50.826294,25.695312 58.02588,28.428223 58.02588,28.428223 C58.02588,28.428223 58.74225,26.561035 58.74225,26.561035 ZM48.600952,21.755371 C48.600952,21.755371 41.401367,19.02246 41.401367,19.02246 C41.401367,19.02246 40.684998,20.890137 40.684998,20.890137 C40.684998,20.890137 47.884583,23.623535 47.884583,23.623535 C47.884583,23.623535 48.600952,21.755371 48.600952,21.755371 ZM37.45514,16.969727 C37.45514,16.969727 30.255493,14.236328 30.255493,14.236328 C30.255493,14.236328 29.539124,16.104492 29.539124,16.104492 C29.539124,16.104492 36.73871,18.837402 36.73871,18.837402 C36.73871,18.837402 37.45514,16.969727 37.45514,16.969727 ZM26.309387,12.184082 C26.309387,12.184082 19.109802,9.450684 19.109802,9.450684 C19.109802,9.450684 18.393372,11.318359 18.393372,11.318359 C18.393372,11.318359 25.592957,14.05127 25.592957,14.05127 C25.592957,14.05127 26.309387,12.184082 26.309387,12.184082 ZM15.163635,7.397949 C15.163635,7.397949 7.963928,4.665039 7.963928,4.665039 C7.963928,4.665039 7.2474976,6.5322266 7.2474976,6.5322266 C7.2474976,6.5322266 14.447205,9.265625 14.447205,9.265625 C14.447205,9.265625 15.163635,7.397949 15.163635,7.397949 Z"/>
</svg>