<svg xmlns="http://www.w3.org/2000/svg"
 xmlns:xlink="http://www.w3.org/1999/xlink"
 width="89px" height="32px"  viewBox="0 0 89 32">
<path fill-rule="evenodd"  fill="#939393"
 d="M83.09686,23.405762 C81.18683,23.75586 79.92377,25.580078 80.27557,27.47998 C80.62744,29.379883 82.46094,30.636719 84.37085,30.286621 C86.28082,29.936523 87.543945,28.112793 87.19202,26.212402 C86.84021,24.3125 85.006775,23.056152 83.09686,23.405762 ZM83.460815,25.37207 C82.642334,25.521973 82.10101,26.30371 82.25171,27.118164 C82.40253,27.932129 83.18829,28.470703 84.0069,28.3208 C84.82538,28.170898 85.3667,27.38916 85.21594,26.574707 C85.065125,25.760742 84.27936,25.22168 83.460815,25.37207 ZM4.597595,2.2207031 C2.687683,2.5708008 1.4246216,4.3945312 1.7764282,6.2944336 C2.1281738,8.194824 3.961792,9.451172 5.871704,9.101074 C7.781555,8.751465 9.044678,6.927246 8.692871,5.0273438 C8.341064,3.1269531 6.5076294,1.8706055 4.597595,2.2207031 ZM4.96167,4.1865234 C4.1431885,4.336426 3.6017456,5.118164 3.7525635,5.932617 C3.9033203,6.7470703 4.689148,7.2851562 5.5076294,7.135254 C6.326233,6.9853516 6.8675537,6.2036133 6.716675,5.3896484 C6.565979,4.5751953 5.7802124,4.036621 4.96167,4.1865234 ZM81.8009,24.223145 C81.8009,24.223145 74.250916,22.688477 74.250916,22.688477 C74.250916,22.688477 73.84863,24.646973 73.84863,24.646973 C73.84863,24.646973 81.3988,26.18164 81.3988,26.18164 C81.3988,26.18164 81.8009,24.223145 81.8009,24.223145 ZM71.99841,20.9375 C71.99841,20.9375 64.44824,19.40332 64.44824,19.40332 C64.44824,19.40332 64.04602,21.361816 64.04602,21.361816 C64.04602,21.361816 71.59613,22.895996 71.59613,22.895996 C71.59613,22.895996 71.99841,20.9375 71.99841,20.9375 ZM61.20764,17.833496 C61.20764,17.833496 53.657593,16.298828 53.657593,16.298828 C53.657593,16.298828 53.25537,18.257812 53.25537,18.257812 C53.25537,18.257812 60.80536,19.791992 60.80536,19.791992 C60.80536,19.791992 61.20764,17.833496 61.20764,17.833496 ZM50.41687,14.729492 C50.41687,14.729492 42.866882,13.194824 42.866882,13.194824 C42.866882,13.194824 42.4646,15.153809 42.4646,15.153809 C42.4646,15.153809 50.01465,16.687988 50.01465,16.687988 C50.01465,16.687988 50.41687,14.729492 50.41687,14.729492 ZM38.638184,11.806641 C38.638184,11.806641 31.088013,10.271973 31.088013,10.271973 C31.088013,10.271973 30.685913,12.230469 30.685913,12.230469 C30.685913,12.230469 38.2359,13.765137 38.2359,13.765137 C38.2359,13.765137 38.638184,11.806641 38.638184,11.806641 ZM26.859314,8.883789 C26.859314,8.883789 19.309326,7.349121 19.309326,7.349121 C19.309326,7.349121 18.907043,9.307617 18.907043,9.307617 C18.907043,9.307617 26.457092,10.841797 26.457092,10.841797 C26.457092,10.841797 26.859314,8.883789 26.859314,8.883789 ZM15.080627,5.9609375 C15.080627,5.9609375 7.5305176,4.4262695 7.5305176,4.4262695 C7.5305176,4.4262695 7.128235,6.3842773 7.128235,6.3842773 C7.128235,6.3842773 14.678345,7.9189453 14.678345,7.9189453 C14.678345,7.9189453 15.080627,5.9609375 15.080627,5.9609375 Z"/>
</svg>