<svg xmlns="http://www.w3.org/2000/svg"
 xmlns:xlink="http://www.w3.org/1999/xlink"
 width="91px" height="26px"  viewBox="0 0 91 26">
<path fill-rule="evenodd"  fill="#939393"
 d="M83.38513,2.974121 C81.81787,4.114746 81.47699,6.303711 82.62366,7.862793 C83.77051,9.421875 85.9707,9.76123 87.537964,8.620117 C89.10535,7.479492 89.44629,5.2910156 88.2995,3.7314453 C87.15277,2.1723633 84.952515,1.8334961 83.38513,2.974121 ZM84.571655,4.5874023 C83.900024,5.076172 83.75391,6.0146484 84.24542,6.682617 C84.73682,7.350586 85.67981,7.4960938 86.35144,7.007324 C87.023254,6.5180664 87.16937,5.580078 86.67786,4.9121094 C86.18634,4.2436523 85.24347,4.098633 84.571655,4.5874023 ZM3.43042,17.825684 C1.8631592,18.966309 1.5222168,21.155273 2.6689453,22.714355 C3.8157349,24.273926 6.015991,24.612793 7.583252,23.472168 C9.150635,22.331055 9.491577,20.142578 8.344727,18.583496 C7.198059,17.024414 4.9978027,16.685059 3.43042,17.825684 ZM4.6169434,19.438965 C3.9453125,19.927734 3.7991943,20.86621 4.2907104,21.53418 C4.7821045,22.202148 5.7250977,22.347656 6.3967285,21.858887 C7.0684814,21.370117 7.2146606,20.432129 6.7231445,19.763672 C6.2316284,19.095215 5.2886963,18.950195 4.6169434,19.438965 ZM82.57489,4.2700195 C82.57489,4.2700195 75.10455,6.151367 75.10455,6.151367 C75.10455,6.151367 75.59766,8.088867 75.59766,8.088867 C75.59766,8.088867 83.068054,6.2075195 83.068054,6.2075195 C83.068054,6.2075195 82.57489,4.2700195 82.57489,4.2700195 ZM72.31116,5.54834 C72.31116,5.54834 64.84082,7.4296875 64.84082,7.4296875 C64.84082,7.4296875 65.33392,9.367676 65.33392,9.367676 C65.33392,9.367676 72.80432,7.486328 72.80432,7.486328 C72.80432,7.486328 72.31116,5.54834 72.31116,5.54834 ZM61.23651,7.4174805 C61.23651,7.4174805 53.766113,9.298828 53.766113,9.298828 C53.766113,9.298828 54.2594,11.236816 54.2594,11.236816 C54.2594,11.236816 61.729736,9.35498 61.729736,9.35498 C61.729736,9.35498 61.23651,7.4174805 61.23651,7.4174805 ZM50.161926,9.286133 C50.161926,9.286133 42.69159,11.16748 42.69159,11.16748 C42.69159,11.16748 43.184692,13.10498 43.184692,13.10498 C43.184692,13.10498 50.65503,11.223633 50.65503,11.223633 C50.65503,11.223633 50.161926,9.286133 50.161926,9.286133 ZM38.27643,11.744629 C38.27643,11.744629 30.806213,13.626465 30.806213,13.626465 C30.806213,13.626465 31.299316,15.564453 31.299316,15.564453 C31.299316,15.564453 38.769653,13.682617 38.769653,13.682617 C38.769653,13.682617 38.27643,11.744629 38.27643,11.744629 ZM26.391052,14.203613 C26.391052,14.203613 18.920715,16.08496 18.920715,16.08496 C18.920715,16.08496 19.413818,18.02295 19.413818,18.02295 C19.413818,18.02295 26.884155,16.141602 26.884155,16.141602 C26.884155,16.141602 26.391052,14.203613 26.391052,14.203613 ZM14.505554,16.663086 C14.505554,16.663086 7.0353394,18.544434 7.0353394,18.544434 C7.0353394,18.544434 7.5284424,20.481934 7.5284424,20.481934 C7.5284424,20.481934 14.998779,18.600586 14.998779,18.600586 C14.998779,18.600586 14.505554,16.663086 14.505554,16.663086 Z"/>
</svg>