<svg xmlns="http://www.w3.org/2000/svg"
 xmlns:xlink="http://www.w3.org/1999/xlink"
 width="87px" height="37px"  viewBox="0 0 87 37">
<path fill-rule="evenodd"  fill="#939393"
 d="M79.419495,2.4160156 C78.041626,3.777832 78.03406,5.9921875 79.40259,7.3632812 C80.77118,8.733887 82.99762,8.741699 84.37561,7.379883 C85.75348,6.0185547 85.76099,3.803711 84.392395,2.4331055 C83.023926,1.0620117 80.79736,1.0546875 79.419495,2.4160156 ZM80.83545,3.8344727 C80.244995,4.4179688 80.24176,5.3671875 80.82825,5.95459 C81.414795,6.541992 82.36902,6.54541 82.95947,5.961914 C83.55005,5.378418 83.553345,4.429199 82.9668,3.8417969 C82.38019,3.2543945 81.426025,3.2509766 80.83545,3.8344727 ZM2.602295,29.012207 C1.2244263,30.374023 1.2168579,32.588867 2.5854492,33.959473 C3.9539795,35.33008 6.18042,35.337402 7.5584106,33.976562 C8.936279,32.614746 8.943787,30.399902 7.5753174,29.029297 C6.206726,27.658691 3.9802856,27.650879 2.602295,29.012207 ZM4.0183716,30.430664 C3.4277344,31.01416 3.4245605,31.963379 4.0110474,32.55078 C4.597595,33.138184 5.551758,33.1416 6.142273,32.558105 C6.73291,31.97461 6.736145,31.02539 6.149597,30.437988 C5.5631104,29.850586 4.6088867,29.847168 4.0183716,30.430664 ZM78.813416,3.817871 C78.813416,3.817871 71.71063,6.7910156 71.71063,6.7910156 C71.71063,6.7910156 72.48999,8.633789 72.48999,8.633789 C72.48999,8.633789 79.59277,5.6606445 79.59277,5.6606445 C79.59277,5.6606445 78.813416,3.817871 78.813416,3.817871 ZM68.85785,6.611328 C68.85785,6.611328 61.755066,9.584473 61.755066,9.584473 C61.755066,9.584473 62.534424,11.427246 62.534424,11.427246 C62.534424,11.427246 69.63721,8.453613 69.63721,8.453613 C69.63721,8.453613 68.85785,6.611328 68.85785,6.611328 ZM58.189575,10.108887 C58.189575,10.108887 51.08667,13.082031 51.08667,13.082031 C51.08667,13.082031 51.866028,14.924805 51.866028,14.924805 C51.866028,14.924805 58.96881,11.95166 58.96881,11.95166 C58.96881,11.95166 58.189575,10.108887 58.189575,10.108887 ZM47.52118,13.606445 C47.52118,13.606445 40.418274,16.57959 40.418274,16.57959 C40.418274,16.57959 41.19763,18.422363 41.19763,18.422363 C41.19763,18.422363 48.300476,15.449219 48.300476,15.449219 C48.300476,15.449219 47.52118,13.606445 47.52118,13.606445 ZM36.139893,17.808594 C36.139893,17.808594 29.03711,20.781738 29.03711,20.781738 C29.03711,20.781738 29.816467,22.624023 29.816467,22.624023 C29.816467,22.624023 36.91925,19.650879 36.91925,19.650879 C36.91925,19.650879 36.139893,17.808594 36.139893,17.808594 ZM24.758728,22.010254 C24.758728,22.010254 17.655884,24.983887 17.655884,24.983887 C17.655884,24.983887 18.43518,26.826172 18.43518,26.826172 C18.43518,26.826172 25.537964,23.853027 25.537964,23.853027 C25.537964,23.853027 24.758728,22.010254 24.758728,22.010254 ZM13.377502,26.212402 C13.377502,26.212402 6.274719,29.185547 6.274719,29.185547 C6.274719,29.185547 7.053955,31.02832 7.053955,31.02832 C7.053955,31.02832 14.156799,28.055176 14.156799,28.055176 C14.156799,28.055176 13.377502,26.212402 13.377502,26.212402 Z"/>
</svg>