<svg xmlns="http://www.w3.org/2000/svg"
 xmlns:xlink="http://www.w3.org/1999/xlink"
 width="88px" height="32px"  viewBox="0 0 88 32">
<path fill-rule="evenodd"  fill="#5ea5bd"
 d="M5.567627,23.155762 C7.46875,23.506348 8.72583,25.331055 8.375732,27.232422 C8.025635,29.1333 6.2005615,30.390625 4.2996826,30.04004 C2.3985596,29.689941 1.1413574,27.865234 1.4914551,25.964355 C1.8416748,24.062988 3.666626,22.805664 5.567627,23.155762 ZM5.2053223,25.123047 C6.0201416,25.27295 6.55896,26.055176 6.4088135,26.869629 C6.258789,27.68457 5.4766846,28.223145 4.661865,28.073242 C3.847168,27.92334 3.3083496,27.141113 3.458496,26.326172 C3.6085205,25.511719 4.390625,24.972656 5.2053223,25.123047 ZM83.70032,1.9594727 C85.60132,2.3095703 86.85852,4.1342773 86.50842,6.0356445 C86.1582,7.9365234 84.33325,9.193848 82.43225,8.84375 C80.53125,8.493652 79.27405,6.668457 79.624146,4.767578 C79.974365,2.866211 81.79932,1.609375 83.70032,1.9594727 ZM83.33801,3.9262695 C84.15271,4.076172 84.69153,4.8583984 84.541504,5.67334 C84.39136,6.4882812 83.60925,7.0268555 82.794556,6.876953 C81.97986,6.7265625 81.44104,5.944336 81.591064,5.129883 C81.74109,4.3149414 82.523315,3.7763672 83.33801,3.9262695 ZM6.857544,23.973145 C6.857544,23.973145 14.372314,22.437988 14.372314,22.437988 C14.372314,22.437988 14.772583,24.39746 14.772583,24.39746 C14.772583,24.39746 7.2578125,25.933105 7.2578125,25.933105 C7.2578125,25.933105 6.857544,23.973145 6.857544,23.973145 ZM16.614258,20.686523 C16.614258,20.686523 24.12915,19.150879 24.12915,19.150879 C24.12915,19.150879 24.529419,21.110352 24.529419,21.110352 C24.529419,21.110352 17.014648,22.645996 17.014648,22.645996 C17.014648,22.645996 16.614258,20.686523 16.614258,20.686523 ZM27.354736,17.580566 C27.354736,17.580566 34.869385,16.04541 34.869385,16.04541 C34.869385,16.04541 35.269775,18.004883 35.269775,18.004883 C35.269775,18.004883 27.755005,19.54004 27.755005,19.54004 C27.755005,19.54004 27.354736,17.580566 27.354736,17.580566 ZM38.09497,14.475098 C38.09497,14.475098 45.60974,12.939941 45.60974,12.939941 C45.60974,12.939941 46.01013,14.898926 46.01013,14.898926 C46.01013,14.898926 38.49536,16.43457 38.49536,16.43457 C38.49536,16.43457 38.09497,14.475098 38.09497,14.475098 ZM49.818726,11.550781 C49.818726,11.550781 57.333496,10.015137 57.333496,10.015137 C57.333496,10.015137 57.733887,11.974609 57.733887,11.974609 C57.733887,11.974609 50.218994,13.509766 50.218994,13.509766 C50.218994,13.509766 49.818726,11.550781 49.818726,11.550781 ZM61.54248,8.625977 C61.54248,8.625977 69.05725,7.090332 69.05725,7.090332 C69.05725,7.090332 69.45776,9.050293 69.45776,9.050293 C69.45776,9.050293 61.94287,10.585449 61.94287,10.585449 C61.94287,10.585449 61.54248,8.625977 61.54248,8.625977 ZM73.26636,5.701172 C73.26636,5.701172 80.78113,4.1660156 80.78113,4.1660156 C80.78113,4.1660156 81.18152,6.1254883 81.18152,6.1254883 C81.18152,6.1254883 73.666626,7.661133 73.666626,7.661133 C73.666626,7.661133 73.26636,5.701172 73.26636,5.701172 Z"/>
</svg>