<svg xmlns="http://www.w3.org/2000/svg"
 xmlns:xlink="http://www.w3.org/1999/xlink"
 width="90px" height="26px"  viewBox="0 0 90 26">
<path fill-rule="evenodd"  fill="#5ea5bd"
 d="M7.276001,2.7456055 C8.8359375,3.8867188 9.175293,6.07666 8.033813,7.6367188 C6.892578,9.196777 4.7025146,9.536133 3.1425781,8.394531 C1.5825195,7.253418 1.2431641,5.0634766 2.3846436,3.503418 C3.526001,1.9433594 5.7159424,1.6040039 7.276001,2.7456055 ZM6.0949707,4.3598633 C6.76355,4.848633 6.9090576,5.7871094 6.4198,6.4555664 C5.930664,7.1245117 4.9921875,7.2700195 4.3236084,6.7807617 C3.6549072,6.291504 3.5095215,5.3530273 3.9986572,4.6845703 C4.487915,4.015625 5.4263916,3.8701172 6.0949707,4.3598633 ZM86.8573,17.60498 C88.41736,18.746094 88.756714,20.936035 87.615234,22.496094 C86.47388,24.056152 84.283936,24.395508 82.724,23.253906 C81.16394,22.112793 80.824585,19.922852 81.966064,18.362793 C83.10742,16.802734 85.29736,16.463379 86.8573,17.60498 ZM85.67639,19.219238 C86.34497,19.708008 86.49036,20.646973 86.00122,21.31543 C85.51196,21.983887 84.57349,22.129395 83.90491,21.640137 C83.23633,21.150879 83.09082,20.212402 83.58008,19.543945 C84.069214,18.875 85.00769,18.729492 85.67639,19.219238 ZM8.08252,4.041992 C8.08252,4.041992 15.517944,5.9243164 15.517944,5.9243164 C15.517944,5.9243164 15.0271,7.8632812 15.0271,7.8632812 C15.0271,7.8632812 7.591675,5.9804688 7.591675,5.9804688 C7.591675,5.9804688 8.08252,4.041992 8.08252,4.041992 ZM18.29834,5.321289 C18.29834,5.321289 25.733765,7.2036133 25.733765,7.2036133 C25.733765,7.2036133 25.24292,9.142578 25.24292,9.142578 C25.24292,9.142578 17.807495,7.260254 17.807495,7.260254 C17.807495,7.260254 18.29834,5.321289 18.29834,5.321289 ZM29.32129,7.190918 C29.32129,7.190918 36.756714,9.073242 36.756714,9.073242 C36.756714,9.073242 36.26587,11.012207 36.26587,11.012207 C36.26587,11.012207 28.830444,9.129883 28.830444,9.129883 C28.830444,9.129883 29.32129,7.190918 29.32129,7.190918 ZM40.344116,9.060547 C40.344116,9.060547 47.77954,10.943359 47.77954,10.943359 C47.77954,10.943359 47.288696,12.881836 47.288696,12.881836 C47.288696,12.881836 39.85327,10.999512 39.85327,10.999512 C39.85327,10.999512 40.344116,9.060547 40.344116,9.060547 ZM52.174072,11.520996 C52.174072,11.520996 59.609497,13.40332 59.609497,13.40332 C59.609497,13.40332 59.118652,15.342285 59.118652,15.342285 C59.118652,15.342285 51.683228,13.459961 51.683228,13.459961 C51.683228,13.459961 52.174072,11.520996 52.174072,11.520996 ZM64.00403,13.980957 C64.00403,13.980957 71.43945,15.86377 71.43945,15.86377 C71.43945,15.86377 70.94861,17.802246 70.94861,17.802246 C70.94861,17.802246 63.51306,15.919922 63.51306,15.919922 C63.51306,15.919922 64.00403,13.980957 64.00403,13.980957 ZM75.833984,16.441406 C75.833984,16.441406 83.26941,18.32373 83.26941,18.32373 C83.26941,18.32373 82.778564,20.262695 82.778564,20.262695 C82.778564,20.262695 75.34314,18.379883 75.34314,18.379883 C75.34314,18.379883 75.833984,16.441406 75.833984,16.441406 Z"/>
</svg>