<svg xmlns="http://www.w3.org/2000/svg"
 xmlns:xlink="http://www.w3.org/1999/xlink"
 width="88px" height="38px"  viewBox="0 0 88 38">
<path fill-rule="evenodd"  fill="#5ea5bd"
 d="M8.237061,3.2114258 C9.6085205,4.5737305 9.616089,6.789551 8.253906,8.161133 C6.8918457,9.532715 4.675659,9.540039 3.3041992,8.177734 C1.9327393,6.815918 1.925293,4.5996094 3.2874756,3.2280273 C4.649658,1.8569336 6.8656006,1.8496094 8.237061,3.2114258 ZM6.827759,4.630371 C7.4155273,5.2143555 7.418701,6.1640625 6.834961,6.751953 C6.2512207,7.3393555 5.3015137,7.3427734 4.713745,6.758789 C4.1259766,6.175293 4.1225586,5.225586 4.706543,4.6376953 C5.290283,4.050293 6.23999,4.046875 6.827759,4.630371 ZM84.69568,29.821777 C86.06714,31.184082 86.07471,33.399902 84.712524,34.771484 C83.35034,36.14258 81.13428,36.15039 79.76282,34.788086 C78.391235,33.42627 78.38379,31.20996 79.74585,29.838379 C81.10803,28.466797 83.32422,28.459473 84.69568,29.821777 ZM83.286255,31.240723 C83.87402,31.824707 83.87732,32.774414 83.29346,33.362305 C82.709595,33.949707 81.75989,33.953125 81.17212,33.36914 C80.58435,32.785156 80.58118,31.83545 81.16492,31.248047 C81.74866,30.660156 82.69849,30.656738 83.286255,31.240723 ZM8.840454,4.614258 C8.840454,4.614258 15.910034,7.588867 15.910034,7.588867 C15.910034,7.588867 15.134399,9.432617 15.134399,9.432617 C15.134399,9.432617 8.064697,6.4575195 8.064697,6.4575195 C8.064697,6.4575195 8.840454,4.614258 8.840454,4.614258 ZM18.74939,7.4091797 C18.74939,7.4091797 25.819092,10.383789 25.819092,10.383789 C25.819092,10.383789 25.043457,12.227539 25.043457,12.227539 C25.043457,12.227539 17.973755,9.252441 17.973755,9.252441 C17.973755,9.252441 18.74939,7.4091797 18.74939,7.4091797 ZM29.368042,10.908203 C29.368042,10.908203 36.437622,13.883301 36.437622,13.883301 C36.437622,13.883301 35.661987,15.7265625 35.661987,15.7265625 C35.661987,15.7265625 28.592407,12.751953 28.592407,12.751953 C28.592407,12.751953 29.368042,10.908203 29.368042,10.908203 ZM39.986572,14.407715 C39.986572,14.407715 47.056274,17.382812 47.056274,17.382812 C47.056274,17.382812 46.28064,19.226074 46.28064,19.226074 C46.28064,19.226074 39.210938,16.251465 39.210938,16.251465 C39.210938,16.251465 39.986572,14.407715 39.986572,14.407715 ZM51.314575,18.612305 C51.314575,18.612305 58.384277,21.586914 58.384277,21.586914 C58.384277,21.586914 57.608643,23.430176 57.608643,23.430176 C57.608643,23.430176 50.53894,20.455566 50.53894,20.455566 C50.53894,20.455566 51.314575,18.612305 51.314575,18.612305 ZM62.642822,22.815918 C62.642822,22.815918 69.7124,25.791016 69.7124,25.791016 C69.7124,25.791016 68.936646,27.634277 68.936646,27.634277 C68.936646,27.634277 61.866943,24.659668 61.866943,24.659668 C61.866943,24.659668 62.642822,22.815918 62.642822,22.815918 ZM73.970825,27.02002 C73.970825,27.02002 81.040405,29.995117 81.040405,29.995117 C81.040405,29.995117 80.26477,31.838379 80.26477,31.838379 C80.26477,31.838379 73.19519,28.86377 73.19519,28.86377 C73.19519,28.86377 73.970825,27.02002 73.970825,27.02002 Z"/>
</svg>