<svg xmlns="http://www.w3.org/2000/svg"
 xmlns:xlink="http://www.w3.org/1999/xlink"
 width="67px" height="107px"  viewBox="0 0 67 107">
<path fill-rule="evenodd"  fill="#68b0c9"
 d="M5.5,1.0 C7.9852295,1.0 10.0,3.0146484 10.0,5.5 C10.0,7.9848633 7.9852295,10.0 5.5,10.0 C3.0146484,10.0 0.9998779,7.9848633 0.9998779,5.5 C0.9998779,3.0146484 3.0146484,1.0 5.5,1.0 ZM5.5,3.0 C6.880615,3.0 7.999878,4.1191406 7.999878,5.5 C7.999878,6.8808594 6.880615,8.0 5.5,8.0 C4.1192627,8.0 3.0,6.8808594 3.0,5.5 C3.0,4.1191406 4.1192627,3.0 5.5,3.0 ZM8.999878,3.9995117 C8.999878,3.9995117 15.999878,3.9995117 15.999878,3.9995117 C15.999878,3.9995117 15.999878,6.0 15.999878,6.0 C15.999878,6.0 8.999878,6.0 8.999878,6.0 C8.999878,6.0 8.999878,3.9995117 8.999878,3.9995117 ZM19.163452,3.5444336 C19.163452,3.5444336 26.101562,4.4726562 26.101562,4.4726562 C26.101562,4.4726562 25.836426,6.455078 25.836426,6.455078 C25.836426,6.455078 18.898193,5.5268555 18.898193,5.5268555 C18.898193,5.5268555 19.163452,3.5444336 19.163452,3.5444336 ZM30.575928,5.8320312 C30.575928,5.8320312 37.12793,8.295898 37.12793,8.295898 C37.12793,8.295898 36.424072,10.167969 36.424072,10.167969 C36.424072,10.167969 29.871948,7.7036133 29.871948,7.7036133 C29.871948,7.7036133 30.575928,5.8320312 30.575928,5.8320312 ZM40.034668,10.321777 C40.034668,10.321777 46.008057,13.971191 46.008057,13.971191 C46.008057,13.971191 44.96521,15.677734 44.96521,15.677734 C44.96521,15.677734 38.991943,12.02832 38.991943,12.02832 C38.991943,12.02832 40.034668,10.321777 40.034668,10.321777 ZM48.77722,15.792969 C48.77722,15.792969 53.65674,20.8125 53.65674,20.8125 C53.65674,20.8125 52.222656,22.206543 52.222656,22.206543 C52.222656,22.206543 47.34326,17.1875 47.34326,17.1875 C47.34326,17.1875 48.77722,15.792969 48.77722,15.792969 ZM55.38159,23.535645 C55.38159,23.535645 59.27954,29.350098 59.27954,29.350098 C59.27954,29.350098 57.618164,30.463867 57.618164,30.463867 C57.618164,30.463867 53.72046,24.649414 53.72046,24.649414 C53.72046,24.649414 55.38159,23.535645 55.38159,23.535645 ZM61.64746,34.362793 C61.64746,34.362793 63.296143,41.166016 63.296143,41.166016 C63.296143,41.166016 61.352417,41.637207 61.352417,41.637207 C61.352417,41.637207 59.703735,34.833496 59.703735,34.833496 C59.703735,34.833496 61.64746,34.362793 61.64746,34.362793 ZM65.67163,45.55371 C65.67163,45.55371 65.325806,52.54492 65.325806,52.54492 C65.325806,52.54492 63.328247,52.44629 63.328247,52.44629 C63.328247,52.44629 63.674072,45.45508 63.674072,45.45508 C63.674072,45.45508 65.67163,45.55371 65.67163,45.55371 ZM65.16138,56.76123 C65.16138,56.76123 63.800415,63.62744 63.800415,63.62744 C63.800415,63.62744 61.8385,63.23828 61.8385,63.23828 C61.8385,63.23828 63.199463,56.37207 63.199463,56.37207 C63.199463,56.37207 65.16138,56.76123 65.16138,56.76123 ZM61.885376,68.25049 C61.885376,68.25049 58.927124,74.59473 58.927124,74.59473 C58.927124,74.59473 57.114502,73.74902 57.114502,73.74902 C57.114502,73.74902 60.072754,67.40527 60.072754,67.40527 C60.072754,67.40527 61.885376,68.25049 61.885376,68.25049 ZM56.380615,77.774414 C56.380615,77.774414 52.229736,83.41113 52.229736,83.41113 C52.229736,83.41113 50.619263,82.2251 50.619263,82.2251 C50.619263,82.2251 54.77014,76.58887 54.77014,76.58887 C54.77014,76.58887 56.380615,77.774414 56.380615,77.774414 ZM48.79358,87.450195 C48.79358,87.450195 43.522095,92.055664 43.522095,92.055664 C43.522095,92.055664 42.2063,90.549805 42.2063,90.549805 C42.2063,90.549805 47.47766,85.94385 47.47766,85.94385 C47.47766,85.94385 48.79358,87.450195 48.79358,87.450195 ZM38.111572,94.54639 C38.111572,94.54639 31.673096,97.29297 31.673096,97.29297 C31.673096,97.29297 30.888306,95.45361 30.888306,95.45361 C30.888306,95.45361 37.326782,92.70654 37.326782,92.70654 C37.326782,92.70654 38.111572,94.54639 38.111572,94.54639 ZM27.097534,98.5542 C27.097534,98.5542 20.152588,99.42969 20.152588,99.42969 C20.152588,99.42969 19.902344,97.4458 19.902344,97.4458 C19.902344,97.4458 26.84729,96.569824 26.84729,96.569824 C26.84729,96.569824 27.097534,98.5542 27.097534,98.5542 ZM15.987183,99.992676 C15.987183,99.992676 2.9875488,99.94629 2.9875488,99.94629 C2.9875488,99.94629 3.0126953,98.007324 3.0126953,98.007324 C3.0126953,98.007324 16.01233,98.05322 16.01233,98.05322 C16.01233,98.05322 15.987183,99.992676 15.987183,99.992676 ZM14.350098,93.6875 C14.350098,93.6875 2.9631348,99.958984 2.9631348,99.958984 C2.9631348,99.958984 2.043579,98.251465 2.043579,98.251465 C2.043579,98.251465 13.430542,91.98047 13.430542,91.98047 C13.430542,91.98047 14.350098,93.6875 14.350098,93.6875 ZM13.433105,105.92627 C13.433105,105.92627 2.008545,99.72363 2.008545,99.72363 C2.008545,99.72363 2.9500732,98.02783 2.9500732,98.02783 C2.9500732,98.02783 14.374634,104.23047 14.374634,104.23047 C14.374634,104.23047 13.433105,105.92627 13.433105,105.92627 Z"/>
</svg>